<?xml version="1.0" encoding="utf-8"?>
<!-- Generator: Adobe Illustrator 25.0.0, SVG Export Plug-In . SVG Version: 6.00 Build 0)  -->
<svg version="1.1" id="Layer_1" xmlns="http://www.w3.org/2000/svg" xmlns:xlink="http://www.w3.org/1999/xlink" x="0px" y="0px"
	 viewBox="0 0 408.8 408.8" style="enable-background:new 0 0 408.8 408.8;" xml:space="preserve">
<path d="M333.5,27.6H75.3C49,27.6,27.6,49,27.6,75.3v258.3c0,26.3,21.4,47.7,47.7,47.7h127.4l0.3-126.4h-32.9
	c-4.2,0-7.7-3.5-7.8-7.7l-0.2-40.7c0-4.3,3.5-7.8,7.8-7.8h32.8v-39.4c0-45.7,27.8-70.6,68.6-70.6h33.4c4.2,0,7.8,3.5,7.8,7.8v34.3
	c0,4.2-3.5,7.8-7.8,7.8h-20.5c-22.1,0-26.5,10.6-26.5,25.9v34.1h48.7c4.7,0,8.2,4.1,7.7,8.6l-4.8,40.7c-0.4,3.9-3.8,6.8-7.7,6.8
	h-43.7l-0.3,126.4h75.8c26.3,0,47.7-21.4,47.7-47.7V75.3C381.2,49,359.8,27.6,333.5,27.6z"/>
</svg>
