<?xml version="1.0" encoding="utf-8"?>
<!-- Generator: Adobe Illustrator 25.0.0, SVG Export Plug-In . SVG Version: 6.00 Build 0)  -->
<svg version="1.1" id="Laag_1" xmlns="http://www.w3.org/2000/svg" xmlns:xlink="http://www.w3.org/1999/xlink" x="0px" y="0px"
	 viewBox="0 0 24 24" style="enable-background:new 0 0 24 24;" xml:space="preserve">
<path d="M18.2,1.4H5.8c-2.4,0-4.4,2-4.4,4.4v12.3c0,2.4,2,4.4,4.4,4.4h12.3c2.4,0,4.4-2,4.4-4.4V5.8C22.6,3.4,20.6,1.4,18.2,1.4z
	 M8.5,18.2H5.8V8.5h2.6V18.2z M7.2,7.4c-0.8,0-1.5-0.7-1.5-1.6s0.7-1.6,1.5-1.6S8.7,5,8.7,5.8S8,7.4,7.2,7.4z M19,18.2h-2.6v-4.9
	c0-3-3.5-2.7-3.5,0v4.9h-2.6V8.5h2.6V10c1.2-2.3,6.2-2.4,6.2,2.2V18.2z"/>
</svg>
