<?xml version="1.0" encoding="utf-8"?>
<!-- Generator: Adobe Illustrator 25.0.0, SVG Export Plug-In . SVG Version: 6.00 Build 0)  -->
<svg version="1.1" id="Laag_1" xmlns="http://www.w3.org/2000/svg" xmlns:xlink="http://www.w3.org/1999/xlink" x="0px" y="0px"
	 viewBox="0 0 24 24" style="enable-background:new 0 0 24 24;" xml:space="preserve">
<style type="text/css">
	.st0{fill:none;}
</style>
<path class="st0" d="M0,0h24v24H0V0z"/>
<path d="M20.5,15.6c-1.3,0-2.6-0.2-3.7-0.6c-0.4-0.1-0.8,0-1.1,0.3L14,17.3c-3-1.4-5.8-4.1-7.3-7.2l2.1-1.8C9.1,8,9.1,7.6,9,7.3
	C8.6,6.1,8.4,4.8,8.4,3.5c0-0.6-0.5-1-1-1H3.7c-0.6,0-1.3,0.3-1.3,1c0,9.8,8.2,18,18,18c0.8,0,1-0.7,1-1.3v-3.7
	C21.5,16.1,21.1,15.6,20.5,15.6z"/>
</svg>
