<?xml version="1.0" encoding="utf-8"?>
<!-- Generator: Adobe Illustrator 25.0.0, SVG Export Plug-In . SVG Version: 6.00 Build 0)  -->
<svg version="1.1" id="Laag_1" xmlns="http://www.w3.org/2000/svg" xmlns:xlink="http://www.w3.org/1999/xlink" x="0px" y="0px"
	 viewBox="0 0 24 24" style="enable-background:new 0 0 24 24;" xml:space="preserve">
<path d="M23.7,4.8c-0.9,0.4-1.8,0.6-2.7,0.8c1-0.6,1.7-1.5,2.1-2.6c-0.9,0.5-1.9,0.9-3,1.2c-0.9-0.9-2.1-1.5-3.5-1.5
	c-3.1,0-5.4,2.9-4.7,5.9c-4-0.2-7.5-2.1-9.9-5c-1.3,2.1-0.6,5,1.5,6.4c-0.8,0-1.5-0.2-2.2-0.6c-0.1,2.2,1.5,4.3,3.8,4.7
	C4.4,14.1,3.7,14.2,3,14c0.6,1.9,2.4,3.3,4.5,3.3c-2,1.6-4.5,2.3-7.1,2c2.1,1.4,4.6,2.1,7.3,2.1c8.9,0,13.9-7.5,13.6-14.2
	C22.2,6.6,23,5.7,23.7,4.8z"/>
</svg>
